<svg width="240" height="284" viewBox="0 0 240 284" fill="none" xmlns="http://www.w3.org/2000/svg">
<path d="M178.812 105.636L62.25 33.425M233.999 72.1021C236.288 76.3469 237.495 81.1622 237.5 86.0651V197.899C237.495 202.801 236.288 207.617 233.999 211.862C231.71 216.106 228.42 219.631 224.458 222.083L133.167 277.999C129.202 280.453 124.704 281.745 120.125 281.745M233.999 72.1021C231.71 67.8574 228.42 64.3325 224.458 61.8811L133.167 5.96428C129.202 3.51042 124.704 2.21857 120.125 2.21857C115.546 2.21857 111.049 3.51042 107.083 5.96428L15.7917 61.8811C11.8304 64.3325 8.54024 67.8574 6.25118 72.1021M233.999 72.1021L120.125 142.122L6.25118 72.1021M6.25118 72.1021C3.96213 76.3469 2.75469 81.1622 2.75 86.0651V197.899C2.75469 202.801 3.96213 207.617 6.25118 211.862C8.54024 216.106 11.8304 219.631 15.7917 222.083L107.083 277.999C111.049 280.453 115.546 281.745 120.125 281.745M120.125 281.745V141.982" stroke="black" stroke-width="4" stroke-linecap="round" stroke-linejoin="round"/>
</svg>
