<svg width="80" height="80" viewBox="0 0 80 80" fill="none" xmlns="http://www.w3.org/2000/svg">
<path d="M73.3334 40H53.3334L46.6667 50H33.3334L26.6667 40H6.66669" stroke="#04B5AF" stroke-width="4" stroke-linecap="round" stroke-linejoin="round"/>
<path d="M18.1667 17.0333L6.66669 40V60C6.66669 61.7681 7.36907 63.4638 8.61931 64.714C9.86955 65.9643 11.5652 66.6666 13.3334 66.6666H66.6667C68.4348 66.6666 70.1305 65.9643 71.3807 64.714C72.631 63.4638 73.3334 61.7681 73.3334 60V40L61.8333 17.0333C61.2814 15.9226 60.4306 14.9879 59.3765 14.3342C58.3225 13.6806 57.107 13.334 55.8667 13.3333H24.1334C22.8931 13.334 21.6776 13.6806 20.6235 14.3342C19.5694 14.9879 18.7186 15.9226 18.1667 17.0333Z" stroke="#04B5AF" stroke-width="4" stroke-linecap="round" stroke-linejoin="round"/>
</svg>
