<svg width="80" height="80" viewBox="0 0 80 80" fill="none" xmlns="http://www.w3.org/2000/svg">
<path d="M50.1666 16.6666C53.4224 17.3019 56.4146 18.8942 58.7602 21.2398C61.1058 23.5854 62.6981 26.5775 63.3333 29.8333M50.1666 3.33331C56.9309 4.08477 63.2386 7.1139 68.0541 11.9233C72.8696 16.7328 75.9066 23.0367 76.6666 29.8M73.3333 56.4V66.4C73.337 67.3283 73.1469 68.2472 72.775 69.0978C72.4031 69.9484 71.8576 70.7119 71.1735 71.3395C70.4895 71.9671 69.6819 72.4449 68.8024 72.7423C67.923 73.0397 66.9912 73.1502 66.0666 73.0666C55.8094 71.9521 45.9566 68.4471 37.2999 62.8333C29.246 57.7155 22.4177 50.8872 17.2999 42.8333C11.6665 34.1373 8.16075 24.2366 7.06661 13.9333C6.98331 13.0115 7.09286 12.0825 7.38827 11.2054C7.68369 10.3283 8.15851 9.52228 8.78249 8.83872C9.40648 8.15516 10.166 7.60901 11.0126 7.23505C11.8592 6.86109 12.7744 6.66752 13.6999 6.66665H23.6999C25.3176 6.65072 26.8859 7.22357 28.1125 8.27842C29.339 9.33327 30.1402 10.7981 30.3666 12.4C30.7887 15.6002 31.5714 18.7424 32.6999 21.7666C33.1484 22.9597 33.2455 24.2564 32.9796 25.5029C32.7138 26.7495 32.0962 27.8937 31.1999 28.8L26.9666 33.0333C31.7118 41.3785 38.6215 48.2881 46.9666 53.0333L51.1999 48.8C52.1062 47.9038 53.2505 47.2861 54.497 47.0203C55.7436 46.7544 57.0402 46.8515 58.2333 47.3C61.2575 48.4285 64.3997 49.2112 67.5999 49.6333C69.2192 49.8617 70.6979 50.6773 71.7551 51.925C72.8122 53.1726 73.3738 54.7652 73.3333 56.4Z" stroke="#04B5AF" stroke-width="4" stroke-linecap="round" stroke-linejoin="round"/>
</svg>
