<svg width="25" height="20" viewBox="0 0 25 20" fill="none" xmlns="http://www.w3.org/2000/svg">
<path d="M24.5 8.33341V9.00008C24.5 9.55237 24.0523 10.0001 23.5 10.0001H23.1667L22.0786 17.6162C21.9379 18.6015 21.094 19.3334 20.0988 19.3334H4.90125C3.90596 19.3334 3.06212 18.6015 2.92133 17.6162L1.83333 10.0001H1.5C0.947708 10.0001 0.5 9.55237 0.5 9.00008V8.33341C0.5 7.78112 0.947708 7.33341 1.5 7.33341H4.30588L8.75504 1.21587C9.18817 0.620369 10.022 0.488661 10.6176 0.921786C11.2131 1.35491 11.3448 2.18879 10.9117 2.78433L7.60321 7.33341H17.3968L14.0883 2.78429C13.6552 2.18879 13.7869 1.35487 14.3825 0.921744C14.9779 0.488619 15.8119 0.620286 16.245 1.21583L20.6941 7.33341H23.5C24.0523 7.33341 24.5 7.78112 24.5 8.33341ZM13.5 15.6667V11.0001C13.5 10.4478 13.0523 10.0001 12.5 10.0001C11.9477 10.0001 11.5 10.4478 11.5 11.0001V15.6667C11.5 16.219 11.9477 16.6667 12.5 16.6667C13.0523 16.6667 13.5 16.219 13.5 15.6667ZM18.1667 15.6667V11.0001C18.1667 10.4478 17.719 10.0001 17.1667 10.0001C16.6144 10.0001 16.1667 10.4478 16.1667 11.0001V15.6667C16.1667 16.219 16.6144 16.6667 17.1667 16.6667C17.719 16.6667 18.1667 16.219 18.1667 15.6667ZM8.83333 15.6667V11.0001C8.83333 10.4478 8.38563 10.0001 7.83333 10.0001C7.28104 10.0001 6.83333 10.4478 6.83333 11.0001V15.6667C6.83333 16.219 7.28104 16.6667 7.83333 16.6667C8.38563 16.6667 8.83333 16.219 8.83333 15.6667Z" fill="black"/>
</svg>
